<svg xmlns="http://www.w3.org/2000/svg" xmlns:xlink="http://www.w3.org/1999/xlink" width="19.182" height="35.718" viewBox="0 0 19.182 35.718">
  <defs>
    <clipPath id="clip-path">
      <rect id="Rectangle_1160" data-name="Rectangle 1160" width="19.182" height="35.718" transform="translate(0 0)" fill="none"/>
    </clipPath>
  </defs>
  <g id="icon-DeathAdder" transform="translate(0 0)">
    <g id="Group_1525" data-name="Group 1525" clip-path="url(#clip-path)">
      <path id="Path_8838" data-name="Path 8838" d="M10.078,9.723a3.678,3.678,0,0,0,1.039-.206.769.769,0,0,0,.5-.788V.053A10.35,10.35,0,0,1,13.342.54a39.733,39.733,0,0,1,3.906,2.193c0,.725-.014,3.878-.086,4.916-.016.19-.39,4.751-.445,5.854,0,0-.125,2.09-.139,2.871,0,.117.012.654-.8.807a2.732,2.732,0,0,1-.514.066H10.078Z" fill="#eee"/>
      <path id="Path_8839" data-name="Path 8839" d="M9.273,9.723a3.738,3.738,0,0,1-1.05-.206.768.768,0,0,1-.5-.788V.053A39.037,39.037,0,0,0,2.053,2.017c0,.726.292,4.4.429,5.427.094.7.634,4.479.719,5.823,0,0,.2,1.864.218,2.645a1.067,1.067,0,0,0,.8,1.14,2.762,2.762,0,0,0,.515.066l4.542.129Z" fill="#eee"/>
      <path id="Path_8840" data-name="Path 8840" d="M10.887,2.99a2.459,2.459,0,0,0-1.208-.375,3.6,3.6,0,0,0-1.209.229V.125A3.76,3.76,0,0,1,9.679,0a3.748,3.748,0,0,1,1.208.125Z" fill="#eee"/>
      <rect id="Rectangle_1155" data-name="Rectangle 1155" width="2.365" height="0.402" transform="translate(8.47 5.938)" fill="#eee"/>
      <rect id="Rectangle_1156" data-name="Rectangle 1156" width="2.365" height="0.402" transform="translate(8.47 5.037)" fill="#eee"/>
      <rect id="Rectangle_1157" data-name="Rectangle 1157" width="2.365" height="0.402" transform="translate(8.47 7.74)" fill="#eee"/>
      <rect id="Rectangle_1158" data-name="Rectangle 1158" width="2.365" height="0.402" transform="translate(8.47 6.839)" fill="#eee"/>
      <path id="Path_8841" data-name="Path 8841" d="M10.835,3.709V3.7a2.323,2.323,0,0,0-1.182-.533A2.007,2.007,0,0,0,8.47,3.52v.189Z" fill="#eee"/>
      <rect id="Rectangle_1159" data-name="Rectangle 1159" width="2.365" height="0.402" transform="translate(8.47 4.136)" fill="#eee"/>
      <path id="Path_8842" data-name="Path 8842" d="M8.47,8.649v.079a2.072,2.072,0,0,0,1.208.306,2.593,2.593,0,0,0,1.157-.191V8.649Z" fill="#eee"/>
      <path id="Path_8843" data-name="Path 8843" d="M.464,16.623l-.23-.251.143-4.764s-.028-.459.222-.5H.738L.9,16.569Z" fill="#eee"/>
      <path id="Path_8844" data-name="Path 8844" d="M1.523,16.69l-.174-5.982s-.324,0-.334.005c0-.069-.007-.1-.007-.1L.869,7.946.7,4.488.661,2.995s.111-.868.528-.743l.222,2.9s.236,2.806.375,3.931c0,0,.236,1.583.4,3.111a41.853,41.853,0,0,1,.4,4.25s.042.861.487,1.167a1.378,1.378,0,0,0,1.111.458H15.55a2.029,2.029,0,0,0,1.444-.542,1.515,1.515,0,0,0,.431-1.069s.073-2.556.189-3.986c0,0,.248-3.32.314-3.986l.094-2.014.052-3.479h.177a1.43,1.43,0,0,1,.407.854s.01,2.021-.063,3.646c0,0-.187,3.614-.115,5.791,0,0,.063,2.615.459,6.032a30.275,30.275,0,0,1,.239,3.718,15.675,15.675,0,0,1-1.052,5.907,12.52,12.52,0,0,1-2.854,4.211S12.578,35.71,9.5,35.71c0,0-4.813.333-7.549-3.361A8.422,8.422,0,0,1,.3,26.557a27.486,27.486,0,0,1,.162-3.25l.51.568.411-3.223c.161-2.265.14-3.962.14-3.962" fill="#eee"/>
      <path id="Path_8845" data-name="Path 8845" d="M0,22l.258-4.746L.625,17l.3-.023s0,1.386-.157,3.671L.49,22.833Z" fill="#eee"/>
    </g>
  </g>
</svg>
