<svg xmlns="http://www.w3.org/2000/svg" xmlns:xlink="http://www.w3.org/1999/xlink" width="17" height="32" viewBox="0 0 17 32">
  <defs>
    <clipPath id="clip-path">
      <rect id="Rectangle_1130" data-name="Rectangle 1130" width="17" height="32" fill="none"/>
    </clipPath>
  </defs>
  <g id="icon-cobrapro" transform="translate(0 0)">
    <g id="Group_1507" data-name="Group 1507" transform="translate(0 0)" clip-path="url(#clip-path)">
      <path id="Path_8737" data-name="Path 8737" d="M9.461,11.711H9.128a.209.209,0,0,0-.216.2v.836a.1.1,0,0,0,.035.076c-.014.011-.035.014-.035.032v.324a.058.058,0,0,0,.06.056h.641a.057.057,0,0,0,.059-.056v-.324c0-.018-.021-.022-.034-.032a.1.1,0,0,0,.034-.076v-.84a.2.2,0,0,0-.211-.2" transform="translate(-0.912 -1.199)" fill="#eee"/>
      <path id="Path_8738" data-name="Path 8738" d="M8.972,13.837a.057.057,0,0,0-.06.055v.329c0,.019.022.025.039.035a.1.1,0,0,0-.039.079v.828a.208.208,0,0,0,.216.2h.333a.2.2,0,0,0,.211-.195v-.831a.1.1,0,0,0-.039-.079c.017-.01.039-.016.039-.035v-.329a.057.057,0,0,0-.059-.055Z" transform="translate(-0.912 -1.416)" fill="#eee"/>
      <path id="Path_8739" data-name="Path 8739" d="M.993,27.382a13.834,13.834,0,0,0,.553-2.119s.143-.7.184-1.055a4.084,4.084,0,0,0,.018-.6L1.7,22.178l-.07-2.022,0-.1a.124.124,0,0,0-.036-.093l-.144-.245s-.032-.041.007-.062c0,0,.08,0,.1-.193,0,0,.061-.016.071-.171a1.84,1.84,0,0,0,0-.393L1.5,17.362l-.091-.985s-.049-.633-.065-.911a.362.362,0,0,0-.091-.221.358.358,0,0,0-.042-.007l-.041-.591a.125.125,0,0,0,.079-.1.569.569,0,0,0,.01-.193l-.11-1.082s1.171.838,2.494,1.666c0,0,1.114.73,2.767,1.765a.333.333,0,0,0,.113.035s.09.009.265.019V1.119h0V.212s0-.237-.279-.2L5.979.25s-1.258.6-1.829.814L2.337,1.8a7.072,7.072,0,0,0-.807.357,2.114,2.114,0,0,0-.813.832s-.1.459-.169,1.061c0,0-.024.171-.066.526,0,0-.075.907-.091,1.468,0,0-.055.96-.055,1.455L.35,8.38s.012.7.064,1.477c0,0,.018.321.016.417,0,0-.046,0-.055.062,0,0-.039.175-.064.239a3.634,3.634,0,0,0-.036.535c.009.215,0,.552.073,1.3,0,0,.1,1.169.147,2.017a.153.153,0,0,0,.039.093l.093.12a.056.056,0,0,0,.047.02H.722l.012.582H.69a.028.028,0,0,0-.028.014L.569,15.4a.1.1,0,0,0-.019.059l.008.346.033.855.039,1.275c-.032.483-.107.906-.107.906L.2,20.827A18.213,18.213,0,0,0,0,23.071a12.51,12.51,0,0,0,.112,1.781,10.134,10.134,0,0,0,.336,1.484,7.478,7.478,0,0,0,.36.978s.038.094.184.069" transform="translate(0 -0.001)" fill="#eee"/>
      <path id="Path_8740" data-name="Path 8740" d="M15.227,29.746a17.588,17.588,0,0,1-.749-3.005,5.241,5.241,0,0,1-.092-.762s0-.478.044-.912l.17-2.79s.172-2.084.244-2.751l.066-.691c.1-.937.156-2.024.156-2.024a.383.383,0,0,0-.05-.233.112.112,0,0,0-.15-.028l-.153.105-3.371,2.2a3.1,3.1,0,0,1-.846.487,2.452,2.452,0,0,1-.344.058s-.739.054-1.477.054c-.763,0-1.526-.054-1.526-.054a2.13,2.13,0,0,1-.466-.066,2.579,2.579,0,0,1-.776-.407L2.433,16.654l-.158-.105a.118.118,0,0,0-.154.028.376.376,0,0,0-.052.233s.057,1.087.162,2.024c0,0,.285,2.929.3,3.339s.092,1.354.149,2.533c0,0,.054.677.064,1.207a3.275,3.275,0,0,1-.06.661S2.628,27,2.44,27.849a14.584,14.584,0,0,1-.393,1.458l-.141.443a.757.757,0,0,0-.035.121.123.123,0,0,0,0,.081,7.73,7.73,0,0,0,1.125,1.417s.45.434.649.58a8.775,8.775,0,0,0,.925.627,8,8,0,0,0,1.341.642,7.232,7.232,0,0,0,1.738.422,8.68,8.68,0,0,0,.985.052H8.7a7.692,7.692,0,0,0,.82-.059,7.1,7.1,0,0,0,1.734-.425,8.015,8.015,0,0,0,1.346-.645,8.17,8.17,0,0,0,.915-.627c.2-.146.644-.58.644-.58a7.437,7.437,0,0,0,1.107-1.391.156.156,0,0,0,.008-.078,1.08,1.08,0,0,0-.041-.138" transform="translate(-0.19 -1.692)" fill="#eee"/>
      <path id="Path_8741" data-name="Path 8741" d="M17.874,23.073a19.051,19.051,0,0,0-.2-2.26L17.349,18.8c-.105-.629-.166-1.654-.166-1.654-.039-.531-.039-1.289-.039-1.289l0-.727c0-.575.077-1.891.077-1.891.032-.6.114-1.65.114-1.65.05-.539.127-1.73.127-1.73.052-.779.066-1.481.066-1.481l.009-.873c0-.5-.037-1.465-.037-1.465-.016-.56-.1-1.469-.1-1.469-.04-.355-.059-.5-.059-.5-.073-.6-.171-1.075-.171-1.075a2.106,2.106,0,0,0-.794-.829,7.075,7.075,0,0,0-.8-.356l-1.824-.737c-.573-.214-1.83-.814-1.83-.814L11.364.005a.214.214,0,0,0-.28.2v.908l0,15.647c.194-.013.279-.024.279-.024a.328.328,0,0,0,.11-.036c1.6-1.035,2.81-1.8,2.81-1.8,1.279-.829,2.538-1.7,2.538-1.7l-.106,1.082s-.075.743-.262,3.207c0,0-.136,1.418-.178,2.453,0,0-.082,1.288-.1,2.4,0,0-.034.851-.045,1.612a1.337,1.337,0,0,0,.031.33,19.484,19.484,0,0,0,.723,3.107.176.176,0,0,0,.182-.082,7.612,7.612,0,0,0,.364-.993,10.1,10.1,0,0,0,.334-1.525,11.2,11.2,0,0,0,.105-1.711" transform="translate(-1.134 0)" fill="#eee"/>
      <path id="Path_8742" data-name="Path 8742" d="M8.047,3.342v.2a.23.23,0,0,0,.238.22l.665-.042a3.844,3.844,0,0,1,.5,0l.659.042a.235.235,0,0,0,.244-.225V.735a.19.19,0,0,0-.2-.182A9.354,9.354,0,0,0,9.194.48a9.05,9.05,0,0,0-.951.073.19.19,0,0,0-.2.182V3.342Z" transform="translate(-0.823 -0.049)" fill="#eee"/>
      <rect id="Rectangle_1126" data-name="Rectangle 1126" width="2.01" height="0.382" transform="translate(7.373 5.92)" fill="#eee"/>
      <rect id="Rectangle_1127" data-name="Rectangle 1127" width="2.01" height="0.382" transform="translate(7.373 7.582)" fill="#eee"/>
      <rect id="Rectangle_1128" data-name="Rectangle 1128" width="2.01" height="0.382" transform="translate(7.373 6.751)" fill="#eee"/>
      <path id="Path_8743" data-name="Path 8743" d="M10.211,9.647V9.371H8.2v.278a.167.167,0,0,0-.116.153v7.915s.485.033,1.125.033,1.125-.033,1.125-.033V9.8a.17.17,0,0,0-.124-.156m-.288,5.06a.539.539,0,0,1-.538.539H9.014a.539.539,0,0,1-.538-.539V11.682a.539.539,0,0,1,.538-.539h.371a.539.539,0,0,1,.538.539Z" transform="translate(-0.827 -0.959)" fill="#eee"/>
      <rect id="Rectangle_1129" data-name="Rectangle 1129" width="2.01" height="0.382" transform="translate(7.373 5.09)" fill="#eee"/>
      <path id="Path_8744" data-name="Path 8744" d="M10.225,5.119V4.855a.181.181,0,0,0-.181-.181H8.4a.183.183,0,0,0-.183.183v.262Z" transform="translate(-0.841 -0.479)" fill="#eee"/>
    </g>
  </g>
</svg>
