<svg id="icon-SignatureEdition" xmlns="http://www.w3.org/2000/svg" xmlns:xlink="http://www.w3.org/1999/xlink" width="18.618" height="36" viewBox="0 0 18.618 36">
  <defs>
    <clipPath id="clip-path">
      <rect id="Rectangle_1154" data-name="Rectangle 1154" width="18.618" height="36" fill="none"/>
    </clipPath>
  </defs>
  <g id="Group_1524" data-name="Group 1524" clip-path="url(#clip-path)">
    <path id="Path_8831" data-name="Path 8831" d="M8.274.355A5.3,5.3,0,0,1,9.311.241a3.8,3.8,0,0,1,1.058.114V3.393L9.322,3.31l-1.048.083Z" fill="#ededed"/>
    <rect id="Rectangle_1150" data-name="Rectangle 1150" width="2.134" height="0.496" transform="translate(8.235 7.696)" fill="#ededed"/>
    <rect id="Rectangle_1151" data-name="Rectangle 1151" width="2.134" height="0.496" transform="translate(8.235 6.705)" fill="#ededed"/>
    <path id="Path_8832" data-name="Path 8832" d="M10.369,4.226V3.98a.25.25,0,0,0-.25-.25H8.481a.247.247,0,0,0-.246.247v.249Z" fill="#ededed"/>
    <rect id="Rectangle_1152" data-name="Rectangle 1152" width="2.134" height="0.496" transform="translate(8.235 5.713)" fill="#ededed"/>
    <rect id="Rectangle_1153" data-name="Rectangle 1153" width="2.134" height="0.496" transform="translate(8.235 4.722)" fill="#ededed"/>
    <path id="Path_8833" data-name="Path 8833" d="M8.245,8.7V10.75a.361.361,0,0,0,.361.361h1.413a.361.361,0,0,0,.36-.361V8.7Z" fill="#ededed"/>
    <path id="Path_8834" data-name="Path 8834" d="M.48,12.569H.286A2.575,2.575,0,0,0,.06,13.627v.6l.21,2.839.117.14h.637Z" fill="#ededed"/>
    <path id="Path_8835" data-name="Path 8835" d="M18.012,21.379c-.372-2.121-.5-3.619-.5-3.619l-1.746,2.871c-.077.3-.382.169-.382.169l-2.968-1.759c-.179-.106-1.578-3.005-1.578-3.005-.213-.362-.467-.331-.467-.331-.466-.042-1.06-.082-1.06-.082s-.6.028-1.064.069c0,0-.254-.031-.467.332,0,0-1.395,2.911-1.573,3.017L3.236,20.8s-.3.132-.382-.169L1.09,17.608l.1,4.876H.872l-.308-.893A29.073,29.073,0,0,0,0,25.634v1.088a9.917,9.917,0,0,0,1.14,4.485A9.191,9.191,0,0,0,9.309,36a9.193,9.193,0,0,0,8.17-4.793,9.909,9.909,0,0,0,1.139-4.485V25.634a32.072,32.072,0,0,0-.606-4.255m-5.1,1.731a.548.548,0,0,1,.938.012l1.536,2.625a.548.548,0,0,1-.469.824l-3.178.018a.547.547,0,0,1-.468-.836ZM7.87,19.362,8.2,17.945c.068-.292.255-.488.464-.489l1.29-.008c.211,0,.4.2.472.49l.336,1.405c.114.473-.122.967-.461.971l-1.959.019c-.343,0-.586-.5-.474-.971m-.5,2.562,3.921-.023a.581.581,0,0,1,.5.888L9.86,25.9a.582.582,0,0,1-.983.008L6.886,22.821a.582.582,0,0,1,.485-.9m-5.1,3.832c-.323.683-.737.683-.936-.015L.816,23.728c-.181-.588.028-.891.248-.891H2.99c.327,0,.456.435.242.911Zm1.1.167,1.467-2.574a.547.547,0,0,1,.935-.026l1.65,2.556a.547.547,0,0,1-.457.844l-3.116.018a.547.547,0,0,1-.479-.818m1.7,6.127-1.5-3.1c-.213-.44.047-.992.468-1l3.1-.018c.43,0,.7.569.469,1.01l-1.6,3.115a.5.5,0,0,1-.937-.016m6.262.971-3.866.022a.6.6,0,0,1-.484-.92l1.9-3.266a.547.547,0,0,1,.955-.009L11.8,32.092a.6.6,0,0,1-.471.929m4.254-4.244L14.113,31.9a.5.5,0,0,1-.936.031l-1.662-3.107c-.235-.439.024-1.016.456-1.019l3.133-.018c.421,0,.688.546.48.988m2.206-5.03-.5,2.016c-.2.7-.608.7-.936.02l-.976-2c-.217-.474-.091-.91.236-.912l1.926-.011c.22,0,.431.3.253.89" fill="#ededed"/>
    <path id="Path_8836" data-name="Path 8836" d="M17.891,3.36C17.313,2.139,16.652,2,16.652,2A20.626,20.626,0,0,1,12.125.241c-.536-.3-.764-.236-.764-.236A.36.36,0,0,0,11.2.3l-.028,8.346v2.245a.733.733,0,0,1-.516.724l-.807.045a.148.148,0,0,0-.156.186v2.773c.672.01,1.363.006,1.363.006a.887.887,0,0,1,.507.308l1.6,3.3L15,19.43c.175.1.269,0,.269,0l1.995-2.609c.062-1.816.981-7.8.981-7.8a27.71,27.71,0,0,0-.351-5.664M16.235,16.021l-.969,1.531a.255.255,0,0,1-.373.162l-1.211-.851a1.162,1.162,0,0,1-.373-.448l-.977-1.63a.267.267,0,0,1,.026-.358s.085-.146.368-.025l2.991,1.057s.422.133.488.244a.4.4,0,0,1,.03.318m.734-4.333-.389,2.759a.225.225,0,0,1-.108.187.527.527,0,0,1-.241-.014L12.957,13.5a.355.355,0,0,1-.146-.262c-.025-.146.167-.222.167-.222l3.607-1.684c.238-.136.311-.035.311-.035.116.085.073.387.073.387" fill="#ededed"/>
    <path id="Path_8837" data-name="Path 8837" d="M8.8,11.663l-.808-.045a.733.733,0,0,1-.516-.723V8.649L7.449.3a.36.36,0,0,0-.155-.3s-.227-.062-.765.236A20.514,20.514,0,0,1,2.007,2s-.661.143-1.24,1.365A27.7,27.7,0,0,0,.416,9.024s.919,5.982.981,7.8c0,0,1.8,2.236,1.961,2.609,0,0,.093.1.269,0l1.817-1.1,1.643-3.4a.888.888,0,0,1,.506-.309s.692,0,1.363-.005V11.85a.148.148,0,0,0-.155-.187m-6.7,2.972A.225.225,0,0,1,2,14.448l-.388-2.759s-.044-.3.072-.388c0,0,.073-.1.311.036L5.6,13.021s.192.076.167.222a.356.356,0,0,1-.146.262L2.346,14.62a.523.523,0,0,1-.241.015m4.14.15-.977,1.63a1.161,1.161,0,0,1-.373.449l-1.211.85a.255.255,0,0,1-.373-.162l-.969-1.531a.4.4,0,0,1,.03-.317c.066-.111.488-.244.488-.244L5.852,14.4c.282-.122.368.024.368.024a.268.268,0,0,1,.025.358" fill="#ededed"/>
  </g>
</svg>
