<svg id="icon-Viper" xmlns="http://www.w3.org/2000/svg" xmlns:xlink="http://www.w3.org/1999/xlink" width="18.618" height="36" viewBox="0 0 18.618 36">
  <defs>
    <clipPath id="clip-path">
      <rect id="Rectangle_1149" data-name="Rectangle 1149" width="18.618" height="36" fill="none"/>
    </clipPath>
  </defs>
  <g id="Group_1522" data-name="Group 1522" clip-path="url(#clip-path)">
    <path id="Path_8824" data-name="Path 8824" d="M11.206.3a.362.362,0,0,1,.155-.3s.227-.061.764.236A20.583,20.583,0,0,0,16.652,2s.661.144,1.24,1.365a27.7,27.7,0,0,1,.351,5.663s-.919,5.982-.981,7.8l-2,2.608s-.093.1-.269,0l-1.833-1.195-1.6-3.3a.879.879,0,0,0-.506-.307s-.691,0-1.362-.007V11.85a.148.148,0,0,1,.155-.187l.808-.045a.733.733,0,0,0,.516-.723V8.649Z" fill="#ededed"/>
    <path id="Path_8825" data-name="Path 8825" d="M7.448.3A.362.362,0,0,0,7.293,0s-.227-.061-.764.236A20.512,20.512,0,0,1,2.006,2S1.345,2.14.767,3.361A27.7,27.7,0,0,0,.416,9.024s.919,5.982.981,7.8c0,0,1.795,2.236,1.96,2.608,0,0,.093.1.269,0l1.817-1.1,1.644-3.4a.879.879,0,0,1,.506-.307s.691,0,1.363-.007V11.85a.149.149,0,0,0-.156-.187l-.808-.045a.733.733,0,0,1-.516-.723V8.649Z" fill="#ededed"/>
    <path id="Path_8826" data-name="Path 8826" d="M8.274.19A5.3,5.3,0,0,1,9.311.076,3.8,3.8,0,0,1,10.369.19V3.228L9.322,3.145l-1.048.083Z" fill="#ededed"/>
    <rect id="Rectangle_1144" data-name="Rectangle 1144" width="2.134" height="0.496" transform="translate(8.235 7.531)" fill="#ededed"/>
    <rect id="Rectangle_1145" data-name="Rectangle 1145" width="2.134" height="0.496" transform="translate(8.235 6.539)" fill="#ededed"/>
    <path id="Path_8827" data-name="Path 8827" d="M10.369,4.061V3.815a.25.25,0,0,0-.25-.25H8.481a.246.246,0,0,0-.246.246v.25Z" fill="#ededed"/>
    <rect id="Rectangle_1146" data-name="Rectangle 1146" width="2.134" height="0.179" transform="translate(8.235 8.523)" fill="#ededed"/>
    <rect id="Rectangle_1147" data-name="Rectangle 1147" width="2.134" height="0.496" transform="translate(8.235 5.548)" fill="#ededed"/>
    <rect id="Rectangle_1148" data-name="Rectangle 1148" width="2.134" height="0.496" transform="translate(8.235 4.556)" fill="#ededed"/>
    <path id="Path_8828" data-name="Path 8828" d="M8.245,8.7V10.75a.361.361,0,0,0,.361.361h1.412a.361.361,0,0,0,.361-.361V8.7ZM9.33,10.695a.258.258,0,1,1,.257-.258.258.258,0,0,1-.257.258" fill="#ededed"/>
    <path id="Path_8829" data-name="Path 8829" d="M.48,12.569H.286A2.575,2.575,0,0,0,.06,13.627v.6l.21,2.839.117.14h.637Z" fill="#ededed"/>
    <path id="Path_8830" data-name="Path 8830" d="M18.012,21.379c-.372-2.121-.5-3.618-.5-3.618l-1.745,2.871c-.078.3-.382.168-.382.168l-2.969-1.759c-.178-.106-1.577-3-1.577-3-.213-.363-.467-.332-.467-.332-.466-.041-1.06-.081-1.06-.081s-.6.027-1.065.069c0,0-.254-.031-.466.331,0,0-1.395,2.911-1.573,3.017L3.236,20.8s-.305.133-.382-.168L1.09,17.609l.1,4.875H.872l-.308-.893A29.073,29.073,0,0,0,0,25.634v1.088a9.912,9.912,0,0,0,1.139,4.486A9.193,9.193,0,0,0,9.309,36a9.191,9.191,0,0,0,8.169-4.792,9.92,9.92,0,0,0,1.14-4.486V25.634a32.1,32.1,0,0,0-.606-4.255" fill="#ededed"/>
  </g>
</svg>
